<?xml version="1.0" encoding="utf-8"?>
<!-- Generator: Adobe Illustrator 16.0.0, SVG Export Plug-In . SVG Version: 6.00 Build 0)  -->
<!DOCTYPE svg PUBLIC "-//W3C//DTD SVG 1.1//EN" "http://www.w3.org/Graphics/SVG/1.1/DTD/svg11.dtd">
<svg version="1.1" id="Layer_1" xmlns="http://www.w3.org/2000/svg" xmlns:xlink="http://www.w3.org/1999/xlink" x="0px" y="0px"
	 width="844px" height="171.658px" viewBox="0 0 844 171.658" enable-background="new 0 0 844 171.658" xml:space="preserve">
<g>
	<defs>
		<rect id="SVGID_1_" x="4" y="2.658" width="836.242" height="166"/>
	</defs>
	<clipPath id="SVGID_2_">
		<use xlink:href="#SVGID_1_"  overflow="visible"/>
	</clipPath>
	<path clip-path="url(#SVGID_2_)" d="M654.641,98.645c5.624,21.76,24.556,37.29,46.738,38.819v30.566h7.204
		c0,0,0.001-48.678,0.001-60.443C675.076,112.029,654.641,98.645,654.641,98.645"/>
	<path clip-path="url(#SVGID_2_)" d="M718.069,135.998c21.759-5.624,37.291-24.556,38.819-46.737h30.566l0.002-7.203
		c0,0-48.678-0.002-60.444-0.002C731.455,115.563,718.069,135.998,718.069,135.998"/>
	<path clip-path="url(#SVGID_2_)" d="M708.581,33.853V3.284h-7.205V63.73c33.507-4.443,53.942,8.942,53.942,8.942
		C749.695,50.912,730.765,35.381,708.581,33.853"/>
	<path clip-path="url(#SVGID_2_)" d="M691.892,35.318c-21.762,5.624-37.292,24.555-38.82,46.736h-30.567v7.204
		c0,0,48.677,0.002,60.442,0.002C678.505,55.753,691.892,35.318,691.892,35.318"/>
	<polygon clip-path="url(#SVGID_2_)" points="797.811,3.911 797.811,13.591 829.613,13.591 829.613,64.403 840.242,64.403 
		840.242,3.911 	"/>
	<polygon clip-path="url(#SVGID_2_)" points="829.613,157.943 797.811,157.943 797.811,167.621 840.242,167.621 840.242,107.129 
		829.613,107.129 	"/>
	<path clip-path="url(#SVGID_2_)" d="M209.159,158.894c-11.579,0-19.961-9.68-19.961-21.519v-0.174
		c0-11.84,8.382-21.345,19.961-21.345c6.915,0,12.099,3.026,16.938,7.52l6.828-7.863c-5.79-5.532-12.53-9.422-23.679-9.422
		c-18.32,0-31.196,14.087-31.196,31.284v0.172c0,17.372,13.137,31.111,30.765,31.111c11.32,0,18.234-4.147,24.542-10.715
		l-6.826-6.913C221.346,155.869,216.592,158.894,209.159,158.894"/>
	<polygon clip-path="url(#SVGID_2_)" points="308.195,132.277 279.332,132.277 279.332,107.129 268.703,107.129 268.703,167.621 
		279.332,167.621 279.332,142.129 308.195,142.129 308.195,167.621 318.825,167.621 318.825,107.129 308.195,107.129 	"/>
	<rect x="359.185" y="107.129" clip-path="url(#SVGID_2_)" width="10.63" height="60.492"/>
	<path clip-path="url(#SVGID_2_)" d="M433.506,132.536c-11.58-2.766-14.347-4.841-14.347-9.506v-0.173
		c0-3.975,3.63-7.173,9.854-7.173c5.528,0,10.973,2.161,16.418,6.221l5.705-8.036c-6.137-4.926-13.138-7.604-21.952-7.604
		c-12.012,0-20.651,7.171-20.651,17.541v0.173c0,11.15,7.257,14.95,20.133,18.062c11.235,2.593,13.655,4.926,13.655,9.246v0.173
		c0,4.58-4.147,7.605-10.716,7.605c-7.518,0-13.31-2.852-19.098-7.864l-6.396,7.604c7.259,6.482,15.989,9.68,25.237,9.68
		c12.703,0,21.603-6.741,21.603-18.062v-0.172C452.949,140.226,446.295,135.646,433.506,132.536"/>
	<polygon clip-path="url(#SVGID_2_)" points="489.68,167.621 534.963,167.621 534.963,158.113 500.31,158.113 500.31,141.868 
		534.963,141.868 534.963,132.362 500.31,132.362 500.31,116.635 534.963,116.635 534.963,107.129 489.68,107.129 	"/>
	<polygon clip-path="url(#SVGID_2_)" points="582.409,107.129 571.778,107.129 571.778,167.621 614.211,167.621 614.211,157.943 
		582.409,157.943 	"/>
	<path clip-path="url(#SVGID_2_)" d="M35.11,55.461c-11.579,0-19.962-9.68-19.962-21.519V33.77c0-11.841,8.383-21.345,19.962-21.345
		c6.914,0,12.099,3.023,16.938,7.518l6.827-7.863c-5.79-5.533-12.53-9.421-23.679-9.421C16.877,2.658,4,16.745,4,33.942v0.172
		c0,17.373,13.137,31.111,30.765,31.111c11.321,0,18.234-4.147,24.543-10.716l-6.827-6.911
		C47.295,52.435,42.541,55.461,35.11,55.461"/>
	<path clip-path="url(#SVGID_2_)" d="M142.321,58.649c-2.919-6.674-5.333-15.721-10.512-18.114
		c7.139-2.836,12.277-8.518,12.277-17.568v-0.172c0-5.272-1.815-9.767-5.014-13.051c-3.889-3.801-9.851-6.048-17.456-6.048H94.655
		V64.19h10.63V43.103h13.309c0,0,7.864,2.749,10.87,13.327c1.289,4.539,2.165,5.933,4.149,7.76h12.374
		C143.593,61.914,143.285,60.85,142.321,58.649 M120.839,33.684h-15.554V13.375h15.468c7.864,0,12.532,3.542,12.532,10.022v0.174
		C133.285,29.708,128.443,33.684,120.839,33.684"/>
	<polygon clip-path="url(#SVGID_2_)" points="226.615,54.682 191.964,54.682 191.964,38.436 226.615,38.436 226.615,28.93 
		191.964,28.93 191.964,13.202 226.615,13.202 226.615,3.696 181.334,3.696 181.334,64.189 226.615,64.189 	"/>
	<polygon clip-path="url(#SVGID_2_)" points="343.803,13.548 362.988,13.548 362.988,64.189 373.705,64.189 373.705,13.548 
		392.889,13.548 392.889,3.696 343.803,3.696 	"/>
	<rect x="428.929" y="3.695" clip-path="url(#SVGID_2_)" width="10.629" height="60.494"/>
	<polygon clip-path="url(#SVGID_2_)" points="509.212,64.621 534.357,3.696 522.864,3.696 504.715,50.188 486.482,3.696 
		474.729,3.696 499.878,64.621 	"/>
	<polygon clip-path="url(#SVGID_2_)" points="568.928,64.189 592.995,64.189 592.995,54.682 579.557,54.682 579.557,38.436 
		592.995,38.436 592.995,28.93 579.557,28.93 579.557,13.202 614.21,13.202 614.21,3.696 568.928,3.696 	"/>
	<polygon clip-path="url(#SVGID_2_)" points="284.863,3.264 258.247,64.189 269.135,64.189 289.617,15.966 310.1,64.189 
		321.333,64.189 294.717,3.264 	"/>
</g>
</svg>
