<?xml version="1.0" encoding="utf-8"?>
<!-- Generator: Adobe Illustrator 16.0.0, SVG Export Plug-In . SVG Version: 6.00 Build 0)  -->
<!DOCTYPE svg PUBLIC "-//W3C//DTD SVG 1.1//EN" "http://www.w3.org/Graphics/SVG/1.1/DTD/svg11.dtd">
<svg version="1.1" id="Layer_1" xmlns="http://www.w3.org/2000/svg" xmlns:xlink="http://www.w3.org/1999/xlink" x="0px" y="0px"
	 width="701.965px" height="698.965px" viewBox="0 0 701.965 698.965" enable-background="new 0 0 701.965 698.965"
	 xml:space="preserve">
<path d="M592.902,2.301H106.338C50.757,2.301,5.53,47.528,5.53,103.109v486.563c0,55.581,45.227,100.809,100.808,100.809h202.958
	V447.198H228.65V326.228h80.646v-81.988c0-66.707,54.263-120.97,120.97-120.97h122.312v120.97H430.267v81.989h122.312l-20.16,120.97
	H430.267v243.28h162.637c55.581,0,100.807-45.227,100.807-100.808V103.108C693.709,47.528,648.483,2.301,592.902,2.301z"/>
<rect x="639.083" y="430.594" width="28.499" height="148.493"/>
<rect x="642.083" y="496.591" fill="#3D5956" width="9" height="1.5"/>
<rect x="631.584" y="420.095" width="25.498" height="143.993"/>
</svg>
