<?xml version="1.0" encoding="utf-8"?>
<!-- Generator: Adobe Illustrator 16.0.0, SVG Export Plug-In . SVG Version: 6.00 Build 0)  -->
<!DOCTYPE svg PUBLIC "-//W3C//DTD SVG 1.1//EN" "http://www.w3.org/Graphics/SVG/1.1/DTD/svg11.dtd">
<svg version="1.1" id="Layer_1" xmlns="http://www.w3.org/2000/svg" xmlns:xlink="http://www.w3.org/1999/xlink" x="0px" y="0px"
	 width="701.965px" height="698.965px" viewBox="0 0 701.965 698.965" enable-background="new 0 0 701.965 698.965"
	 xml:space="preserve">
<g>
	<g>
		<path d="M494.122,8.602H207.078C97.356,8.602,8.092,97.868,8.092,207.588v287.044c0,109.721,89.265,198.988,198.986,198.988
			h287.044c109.721,0,198.985-89.269,198.985-198.986V207.588C693.107,97.868,603.843,8.602,494.122,8.602z M639.592,494.633
			c0,80.213-65.258,145.471-145.47,145.471H207.078c-80.212,0-145.469-65.258-145.469-145.469V207.588
			c0-80.212,65.257-145.469,145.469-145.469h287.044c80.212,0,145.47,65.257,145.47,145.469V494.633L639.592,494.633z"/>
	</g>
</g>
<g>
	<g>
		<path d="M350.601,166.477c-101.809,0-184.634,82.825-184.634,184.633c0,101.808,82.825,184.634,184.634,184.634
			c101.808,0,184.634-82.826,184.634-184.634C535.233,249.302,452.407,166.477,350.601,166.477z M350.601,482.229
			c-72.298,0-131.116-58.817-131.116-131.118c0-72.298,58.818-131.116,131.116-131.116s131.116,58.818,131.116,131.116
			C481.717,423.41,422.896,482.229,350.601,482.229z"/>
	</g>
</g>
<g>
	<g>
		<circle cx="537.909" cy="163.801" r="26.759"/>
	</g>
</g>
</svg>
