<?xml version="1.0" encoding="utf-8"?>
<!-- Generator: Adobe Illustrator 16.0.0, SVG Export Plug-In . SVG Version: 6.00 Build 0)  -->
<!DOCTYPE svg PUBLIC "-//W3C//DTD SVG 1.1//EN" "http://www.w3.org/Graphics/SVG/1.1/DTD/svg11.dtd">
<svg version="1.1" id="Layer_1" xmlns="http://www.w3.org/2000/svg" xmlns:xlink="http://www.w3.org/1999/xlink" x="0px" y="0px"
	 width="1670px" height="1252px" viewBox="-452.524 -149.509 1670 1252" enable-background="new -452.524 -149.509 1670 1252"
	 xml:space="preserve">
<g>
	<g>
		<path fill="#3D5956" d="M948.903,125.867H464.294"/>
	</g>
</g>
<path d="M1171.964,49.134c-18.921-75.969-74.363-135.852-144.67-156.309c-128.453-37.976-642.264-37.976-642.264-37.976
	s-513.798,0-642.248,36.531c-68.955,20.443-125.749,81.797-144.671,157.756c-33.803,138.76-33.803,426.533-33.803,426.533
	s0,289.219,33.8,426.534c18.935,75.953,74.366,135.848,144.685,156.303c129.792,37.985,642.25,37.985,642.25,37.985
	s513.797,0,642.249-36.533c70.32-20.443,125.749-80.339,144.686-156.296c33.804-138.772,33.804-426.531,33.804-426.531
	S1207.128,187.893,1171.964,49.134z"/>
<path fill="#FFFFFF" d="M232.45,640.947l424.954-191.668L232.45,257.616V640.947z"/>
</svg>
